PathFileType	4	(X/Y/Z)	 3.0Hz3min.trc
DataRate	CameraRate	NumFrames	NumMarkers	Units	OrigDataRate	OrigDataStartFrame	OrigNumFrames
200	200	11	35	m	200	501	1000
Frame#	Time	C7			LSH			RSH			MAN			RASI			LASI			HIPR			HIPL			RPSI			LPSI			COX			RTHI1			RTHI2			RTHI3			RTHI4			RSHA1			RSHA2			RSHA3			RSHA4			RHEEL			RMET5			RMET1			RTOE			LTHI1			LTHI2			LTHI3			LTHI4			LSHA1			LSHA2			LSHA3			LSHA4			LHEEL			LMET5			LMET1			LTOE			
		X1	Y1	Z1	X2	Y2	Z2	X3	Y3	Z3	X4	Y4	Z4	X5	Y5	Z5	X6	Y6	Z6	X7	Y7	Z7	X8	Y8	Z8	X9	Y9	Z9	X10	Y10	Z10	X11	Y11	Z11	X12	Y12	Z12	X13	Y13	Z13	X14	Y14	Z14	X15	Y15	Z15	X16	Y16	Z16	X17	Y17	Z17	X18	Y18	Z18	X19	Y19	Z19	X20	Y20	Z20	X21	Y21	Z21	X22	Y22	Z22	X23	Y23	Z23	X24	Y24	Z24	X25	Y25	Z25	X26	Y26	Z26	X27	Y27	Z27	X28	Y28	Z28	X29	Y29	Z29	X30	Y30	Z30	X31	Y31	Z31	X32	Y32	Z32	X33	Y33	Z33	X34	Y34	Z34	X35	Y35	Z35	
501	2.5050	-0.295341	1.375145	-0.570354	-0.212306	1.362781	-0.739375	-0.240638	1.342681	-0.392051	-0.167292	1.323847	-0.562828	-0.156028	0.930492	-0.450778	-0.145238	0.932554	-0.670607	-0.228257	0.967724	-0.416428	-0.199343	0.979105	-0.705698	-0.321458	0.956519	-0.514172	-0.314044	0.957544	-0.618419	-0.318356	0.965617	-0.569187	-0.265870	0.727532	-0.396916	-0.243488	0.672172	-0.391936	-0.184493	0.692895	-0.375667	-0.199228	0.752711	-0.377721	-0.278638	0.335449	-0.376511	-0.293568	0.295953	-0.383902	-0.234741	0.280767	-0.380481	-0.223803	0.319671	-0.377875	-0.389993	0.081304	-0.437837	-0.252460	0.022352	-0.366853	-0.205601	0.035968	-0.442716	-0.180336	0.027631	-0.445019	-0.223524	0.708077	-0.749760	-0.192625	0.654872	-0.747628	-0.134848	0.682136	-0.735158	-0.158566	0.737038	-0.736455	-0.294700	0.318621	-0.762203	-0.314669	0.283344	-0.761597	-0.256909	0.258423	-0.758837	-0.243742	0.300559	-0.760304	-0.416165	0.080925	-0.732366	-0.268801	0.027601	-0.780273	-0.236434	0.037290	-0.704431	-0.212011	0.028008	-0.702141	
502	2.5100	-0.295596	1.372320	-0.570530	-0.212648	1.359177	-0.740008	-0.240657	1.338729	-0.391686	-0.166976	1.319975	-0.562853	-0.155997	0.927032	-0.450349	-0.145159	0.929471	-0.671144	-0.229046	0.963458	-0.416172	-0.199687	0.974509	-0.706260	-0.321714	0.952752	-0.514408	-0.314342	0.953867	-0.618344	-0.318351	0.962268	-0.569203	-0.266829	0.725376	-0.397259	-0.244625	0.669940	-0.392192	-0.185671	0.690559	-0.375499	-0.200266	0.750414	-0.377557	-0.279427	0.332682	-0.376119	-0.294378	0.293344	-0.383731	-0.235528	0.278128	-0.380665	-0.224597	0.317001	-0.377891	-0.391151	0.078590	-0.437874	-0.252653	0.022059	-0.366535	-0.205997	0.035991	-0.442498	-0.180490	0.027602	-0.444871	-0.224916	0.705507	-0.749838	-0.194043	0.652270	-0.747860	-0.136137	0.679523	-0.735963	-0.159832	0.734447	-0.737179	-0.295989	0.316033	-0.762178	-0.315904	0.280741	-0.761499	-0.258120	0.255883	-0.758682	-0.245002	0.298035	-0.760247	-0.417490	0.078052	-0.731873	-0.269229	0.027357	-0.780481	-0.236705	0.037284	-0.704551	-0.212071	0.027973	-0.702266	
503	2.5150	-0.295755	1.370024	-0.570652	-0.213044	1.355933	-0.740618	-0.240751	1.335135	-0.391300	-0.166764	1.316596	-0.562856	-0.156008	0.924080	-0.449861	-0.145035	0.926857	-0.671614	-0.230001	0.959722	-0.416002	-0.200091	0.970472	-0.706791	-0.321818	0.949668	-0.514706	-0.314510	0.950878	-0.618281	-0.318235	0.959565	-0.569254	-0.267855	0.723731	-0.397758	-0.245849	0.668201	-0.392558	-0.186934	0.688724	-0.375414	-0.201378	0.748626	-0.377531	-0.279969	0.330260	-0.375852	-0.294954	0.291046	-0.383600	-0.236080	0.275813	-0.381045	-0.225141	0.314646	-0.378123	-0.392125	0.076192	-0.438066	-0.252823	0.021872	-0.366318	-0.206300	0.036003	-0.442381	-0.180604	0.027589	-0.444757	-0.226504	0.703655	-0.749725	-0.195753	0.650333	-0.747965	-0.137656	0.677470	-0.736711	-0.161232	0.732452	-0.737795	-0.297101	0.313628	-0.762130	-0.316944	0.278311	-0.761406	-0.259123	0.253557	-0.758397	-0.246077	0.295731	-0.760055	-0.418627	0.075501	-0.731379	-0.269601	0.027177	-0.780629	-0.236936	0.037282	-0.704635	-0.212129	0.027947	-0.702379	
504	2.5200	-0.295810	1.368240	-0.570701	-0.213468	1.353127	-0.741154	-0.240889	1.332003	-0.390949	-0.166674	1.313782	-0.562838	-0.156060	0.921706	-0.449340	-0.144857	0.924744	-0.671972	-0.231022	0.956662	-0.415894	-0.200511	0.967200	-0.707260	-0.321830	0.947355	-0.515003	-0.314557	0.948645	-0.618266	-0.318084	0.957530	-0.569344	-0.268886	0.722508	-0.398361	-0.247057	0.666884	-0.393043	-0.188197	0.687314	-0.375439	-0.202504	0.747263	-0.377636	-0.280302	0.328286	-0.375714	-0.295338	0.289080	-0.383577	-0.236442	0.273875	-0.381611	-0.225493	0.312679	-0.378551	-0.392896	0.074152	-0.438450	-0.252969	0.021774	-0.366197	-0.206481	0.036010	-0.442358	-0.180657	0.027591	-0.444672	-0.228191	0.702382	-0.749416	-0.197637	0.648929	-0.747941	-0.139301	0.675869	-0.737420	-0.162668	0.730952	-0.738329	-0.298038	0.311475	-0.762026	-0.317804	0.276134	-0.761273	-0.259941	0.251501	-0.757987	-0.246981	0.293697	-0.759729	-0.419563	0.073338	-0.730867	-0.269923	0.027058	-0.780707	-0.237124	0.037281	-0.704679	-0.212174	0.027929	-0.702476	
505	2.5250	-0.295786	1.366933	-0.570677	-0.213894	1.350826	-0.741575	-0.241076	1.329423	-0.390666	-0.166691	1.311600	-0.562799	-0.156148	0.919948	-0.448823	-0.144613	0.923143	-0.672177	-0.232001	0.954426	-0.415837	-0.200889	0.964862	-0.707626	-0.321776	0.945820	-0.515273	-0.314500	0.947162	-0.618323	-0.317918	0.956146	-0.569472	-0.269855	0.721632	-0.399012	-0.248183	0.665918	-0.393614	-0.189385	0.686255	-0.375572	-0.203559	0.746242	-0.377871	-0.280497	0.326807	-0.375763	-0.295586	0.287505	-0.383715	-0.236665	0.272367	-0.382322	-0.225716	0.311161	-0.379160	-0.393464	0.072494	-0.438976	-0.253086	0.021747	-0.366172	-0.206537	0.036005	-0.442413	-0.180640	0.027609	-0.444614	-0.229877	0.701545	-0.748932	-0.199570	0.647929	-0.747782	-0.140967	0.674625	-0.738096	-0.164073	0.729822	-0.738789	-0.298808	0.309689	-0.761829	-0.318505	0.274327	-0.761060	-0.260604	0.249811	-0.757476	-0.247720	0.292036	-0.759291	-0.420291	0.071597	-0.730311	-0.270196	0.026990	-0.780710	-0.237255	0.037275	-0.704679	-0.212198	0.027915	-0.702549	
506	2.5300	-0.295725	1.366062	-0.570599	-0.214298	1.349082	-0.741865	-0.241314	1.327441	-0.390466	-0.166792	1.310042	-0.562742	-0.156251	0.918812	-0.448355	-0.144309	0.922041	-0.672214	-0.232818	0.953086	-0.415820	-0.201148	0.963550	-0.707852	-0.321681	0.945008	-0.515508	-0.314358	0.946380	-0.618446	-0.317753	0.955358	-0.569633	-0.270709	0.721068	-0.399654	-0.249164	0.665272	-0.394220	-0.190424	0.685531	-0.375797	-0.204485	0.745539	-0.378217	-0.280634	0.325851	-0.376030	-0.295767	0.286332	-0.384046	-0.236816	0.271331	-0.383135	-0.225877	0.310122	-0.379895	-0.393848	0.071257	-0.439616	-0.253175	0.021790	-0.366250	-0.206476	0.035986	-0.442544	-0.180562	0.027630	-0.444578	-0.231482	0.701010	-0.748311	-0.201432	0.647235	-0.747497	-0.142557	0.673681	-0.738714	-0.165392	0.728994	-0.739187	-0.299421	0.308374	-0.761511	-0.319055	0.272996	-0.760734	-0.261125	0.248585	-0.756893	-0.248308	0.290838	-0.758757	-0.420807	0.070323	-0.729728	-0.270414	0.026970	-0.780640	-0.237323	0.037262	-0.704640	-0.212194	0.027903	-0.702595	
507	2.5350	-0.295684	1.365620	-0.570496	-0.214656	1.347929	-0.742036	-0.241566	1.326091	-0.390351	-0.166945	1.309055	-0.562672	-0.156342	0.918277	-0.447985	-0.143961	0.921432	-0.672083	-0.233371	0.952639	-0.415843	-0.201217	0.963263	-0.707920	-0.321567	0.944825	-0.515704	-0.314155	0.946212	-0.618626	-0.317604	0.955096	-0.569825	-0.271404	0.720843	-0.400249	-0.249976	0.664982	-0.394811	-0.191267	0.685146	-0.376118	-0.205215	0.745157	-0.378670	-0.280802	0.325347	-0.376561	-0.295936	0.285619	-0.384560	-0.236969	0.270778	-0.383984	-0.226047	0.309578	-0.380716	-0.394051	0.070454	-0.440308	-0.253255	0.021884	-0.366404	-0.206332	0.035960	-0.442722	-0.180434	0.027656	-0.444563	-0.232932	0.700739	-0.747621	-0.203111	0.646834	-0.747115	-0.143990	0.673065	-0.739214	-0.166581	0.728471	-0.739520	-0.299879	0.307615	-0.761070	-0.319464	0.272219	-0.760295	-0.261510	0.247895	-0.756259	-0.248744	0.290170	-0.758150	-0.421113	0.069547	-0.729139	-0.270579	0.026991	-0.780509	-0.237327	0.037239	-0.704568	-0.212161	0.027891	-0.702615	
508	2.5400	-0.295696	1.365594	-0.570391	-0.214949	1.347386	-0.742116	-0.241843	1.325378	-0.390296	-0.167104	1.308617	-0.562602	-0.156401	0.918305	-0.447743	-0.143597	0.921319	-0.671808	-0.233616	0.953026	-0.415901	-0.201051	0.963896	-0.707838	-0.321445	0.945174	-0.515872	-0.313913	0.946568	-0.618856	-0.317472	0.955303	-0.570035	-0.271900	0.720985	-0.400786	-0.250597	0.665064	-0.395373	-0.191892	0.685096	-0.376508	-0.205716	0.745119	-0.379144	-0.281049	0.325322	-0.377285	-0.296160	0.285403	-0.385277	-0.237178	0.270702	-0.384826	-0.226291	0.309524	-0.381568	-0.394079	0.070063	-0.440994	-0.253333	0.022014	-0.366633	-0.206158	0.035939	-0.442901	-0.180272	0.027670	-0.444556	-0.234163	0.700782	-0.746957	-0.204534	0.646770	-0.746666	-0.145213	0.672827	-0.739552	-0.167601	0.728313	-0.739769	-0.300191	0.307439	-0.760528	-0.319744	0.272017	-0.759758	-0.261774	0.247757	-0.755599	-0.249046	0.290045	-0.757494	-0.421215	0.069280	-0.728563	-0.270700	0.027042	-0.780315	-0.237277	0.037211	-0.704468	-0.212105	0.027877	-0.702613	
509	2.5450	-0.295795	1.366018	-0.570314	-0.215166	1.347456	-0.742130	-0.242151	1.325293	-0.390273	-0.167250	1.308701	-0.562542	-0.156407	0.918859	-0.447644	-0.143241	0.921708	-0.671432	-0.233560	0.954140	-0.416001	-0.200638	0.965271	-0.707633	-0.321300	0.945967	-0.516031	-0.313645	0.947380	-0.619108	-0.317333	0.955935	-0.570246	-0.272181	0.721488	-0.401260	-0.251022	0.665519	-0.395870	-0.192285	0.685389	-0.376937	-0.205967	0.745432	-0.379634	-0.281418	0.325726	-0.378194	-0.296475	0.285678	-0.386147	-0.237481	0.271088	-0.385607	-0.226641	0.309930	-0.382395	-0.393953	0.070073	-0.441643	-0.253419	0.022168	-0.366924	-0.205975	0.035912	-0.443070	-0.180092	0.027674	-0.444558	-0.235136	0.701198	-0.746360	-0.205661	0.647104	-0.746172	-0.146187	0.673035	-0.739711	-0.168419	0.728572	-0.739918	-0.300385	0.307817	-0.759913	-0.319919	0.272366	-0.759158	-0.261942	0.248152	-0.754946	-0.249235	0.290449	-0.756823	-0.421127	0.069521	-0.728019	-0.270781	0.027122	-0.780064	-0.237176	0.037177	-0.704347	-0.212031	0.027863	-0.702591	
510	2.5500	-0.295977	1.366911	-0.570275	-0.215300	1.348129	-0.742101	-0.242469	1.325818	-0.390272	-0.167387	1.309282	-0.562503	-0.156343	0.919892	-0.447689	-0.142917	0.922592	-0.671008	-0.233239	0.955830	-0.416141	-0.199986	0.967195	-0.707351	-0.321135	0.947143	-0.516176	-0.313369	0.948595	-0.619354	-0.317187	0.956964	-0.570447	-0.272256	0.722343	-0.401667	-0.251244	0.666340	-0.396289	-0.192442	0.686040	-0.377388	-0.205986	0.746113	-0.380111	-0.281924	0.326525	-0.379234	-0.296898	0.286392	-0.387123	-0.237891	0.271906	-0.386305	-0.227107	0.310761	-0.383149	-0.393693	0.070460	-0.442239	-0.253510	0.022347	-0.367268	-0.205794	0.035877	-0.443223	-0.179909	0.027670	-0.444571	-0.235816	0.702040	-0.745847	-0.206464	0.647893	-0.745668	-0.146879	0.673719	-0.739676	-0.168986	0.729297	-0.739961	-0.300499	0.308688	-0.759268	-0.320015	0.273214	-0.758534	-0.262024	0.249038	-0.754325	-0.249341	0.291334	-0.756170	-0.420858	0.070253	-0.727521	-0.270824	0.027232	-0.779767	-0.237029	0.037137	-0.704213	-0.211945	0.027847	-0.702552	
511	2.5550	-0.296214	1.368282	-0.570274	-0.215339	1.349386	-0.742043	-0.242800	1.326935	-0.390284	-0.167522	1.310356	-0.562486	-0.156210	0.921374	-0.447860	-0.142639	0.923970	-0.670584	-0.232707	0.957947	-0.416317	-0.199140	0.969501	-0.707037	-0.320953	0.948667	-0.516287	-0.313090	0.950185	-0.619585	-0.317042	0.958363	-0.570624	-0.272145	0.723544	-0.402009	-0.251259	0.667518	-0.396642	-0.192387	0.687045	-0.377852	-0.205806	0.747146	-0.380560	-0.282555	0.327657	-0.380326	-0.297417	0.287522	-0.388128	-0.238399	0.273116	-0.386902	-0.227690	0.311989	-0.383833	-0.393319	0.071201	-0.442773	-0.253596	0.022538	-0.367633	-0.205621	0.035838	-0.443352	-0.179737	0.027662	-0.444592	-0.236178	0.703337	-0.745434	-0.206927	0.649145	-0.745182	-0.147269	0.674878	-0.739465	-0.169267	0.730493	-0.739891	-0.300559	0.309991	-0.758640	-0.320050	0.274482	-0.757929	-0.262031	0.250359	-0.753763	-0.249390	0.292656	-0.755569	-0.420419	0.071443	-0.727073	-0.270832	0.027369	-0.779434	-0.236846	0.037092	-0.704064	-0.211854	0.027829	-0.702494	
